<svg width="570" height="498" viewBox="0 0 570 498" fill="none" xmlns="http://www.w3.org/2000/svg">
<path d="M824.935 320.903C799.248 305.986 768.209 298.56 731.886 298.494C695.629 298.494 664.657 305.785 639.103 320.502L599.368 343.446L570.738 326.924L568.798 325.786L492.806 281.971L506.787 273.877L532.541 259.026C557.961 244.309 570.738 226.583 570.738 205.779V205.444C570.604 184.439 557.693 166.579 531.939 151.661C506.185 136.811 475.146 129.386 438.89 129.319C402.566 129.252 371.661 136.61 346.041 151.327C320.488 166.11 307.711 183.971 307.845 204.976C307.978 225.914 320.889 243.841 346.643 258.692L371.996 273.341L386.579 281.77L309.383 326.321L307.845 327.258L280.686 342.911L240.75 319.833C214.996 304.915 183.957 297.49 147.701 297.423C111.377 297.356 80.4722 304.715 54.8519 319.498C29.2984 334.282 16.5216 352.143 16.6554 373.08C16.7891 394.018 29.6996 411.946 55.4538 426.796C64.752 432.148 74.7193 436.563 85.4223 439.974C104.286 446.062 125.291 449.139 148.503 449.206C171.448 449.206 192.185 446.329 210.848 440.443C221.752 437.031 231.92 432.549 241.352 427.131L281.02 404.186L343.633 440.376L387.582 465.728L347.914 488.673C322.294 503.457 309.584 521.317 309.651 542.255C309.651 546.871 310.32 551.353 311.591 555.634C316.073 570.953 328.381 584.398 348.449 595.971C356.343 600.52 364.771 604.4 373.668 607.544C393.603 614.634 416.012 618.247 440.897 618.38H441.499C466.316 618.38 488.592 615.036 508.393 608.146C517.624 604.935 526.253 600.988 534.347 596.305C554.75 584.532 566.925 570.819 571.005 555.166C572.009 551.286 572.544 547.205 572.544 543.058V542.723C572.477 521.786 559.5 503.858 533.745 489.008L493.81 465.929L536.756 441.111L599.703 404.788L639.639 427.866C648.937 433.218 658.904 437.633 669.608 441.045C688.472 447.132 709.543 450.209 732.756 450.276C755.633 450.276 776.437 447.4 795.101 441.513C806.004 438.101 816.105 433.619 825.537 428.201C851.024 413.484 863.734 395.757 863.734 374.953V374.619C863.667 353.681 850.69 335.753 824.935 320.903ZM188.038 396.359C177 402.714 163.755 405.925 148.303 405.858C132.783 405.858 119.471 402.647 108.367 396.226C97.2625 389.804 91.7103 382.178 91.6434 373.214C91.6434 364.25 97.1288 356.624 108.166 350.27C119.137 343.848 132.449 340.704 147.901 340.704C163.421 340.771 176.733 343.981 187.77 350.403L227.773 373.482L188.038 396.359ZM382.833 205.11C382.833 196.146 388.318 188.453 399.356 182.098C410.393 175.743 423.638 172.599 439.091 172.599C454.61 172.666 467.922 175.877 479.026 182.232C490.131 188.654 495.683 196.347 495.75 205.31C495.75 214.207 490.264 221.9 479.227 228.255L439.559 251.2L399.556 228.121C388.452 221.699 382.9 214.007 382.833 205.11ZM496.619 536.569C497.221 538.509 497.556 540.516 497.556 542.59C497.556 551.553 492.137 559.179 481.1 565.534C470.062 571.956 456.817 575.1 441.298 575.033H440.897C425.578 574.966 412.467 571.755 401.429 565.4C390.325 558.979 384.706 551.353 384.706 542.389C384.706 540.583 384.906 538.777 385.442 537.104C387.114 530.348 392.399 524.461 401.162 519.444L440.897 496.5L480.832 519.578C489.395 524.528 494.613 530.147 496.619 536.569ZM440.562 435.158L439.893 434.757L334 373.615L383.769 344.918L439.893 312.541L495.014 344.316L546.455 374.017L440.562 435.158ZM772.29 397.43C761.252 403.785 748.007 406.996 732.488 406.929C716.969 406.929 703.724 403.718 692.619 397.296L652.616 374.218L692.352 351.273C703.389 344.918 716.634 341.774 732.154 341.774C747.606 341.841 760.918 345.052 772.022 351.407C783.127 357.829 788.679 365.521 788.746 374.485C788.813 383.382 783.327 391.075 772.29 397.43Z" fill="#185ABC" stroke="#89C0F4" stroke-width="20.0682" stroke-linecap="round" stroke-linejoin="round"/>
<path d="M495.744 205.311C495.744 214.208 490.259 221.901 479.222 228.256L439.554 251.2L399.551 228.122C388.447 221.7 382.894 214.007 382.827 205.11C382.827 196.146 388.313 188.454 399.35 182.099C410.388 175.744 423.633 172.6 439.085 172.6C454.605 172.667 467.917 175.878 479.021 182.232C490.125 188.654 495.678 196.347 495.744 205.311Z" fill="#185ABC" stroke="#89C0F4" stroke-width="20.0682" stroke-linecap="round" stroke-linejoin="round"/>
<path d="M440.903 496.503V575.037C425.585 574.97 412.474 571.759 401.437 565.404C390.332 558.982 384.713 551.356 384.713 542.393C384.713 540.587 384.914 538.78 385.449 537.108C387.121 530.352 392.405 524.465 401.168 519.448L440.903 496.503Z" fill="#185ABC" stroke="#89C0F4" stroke-width="20.0682" stroke-linecap="round" stroke-linejoin="round"/>
<path d="M497.567 542.593C497.567 551.557 492.149 559.183 481.111 565.538C470.074 571.96 456.829 575.104 441.31 575.037H440.908V496.503L480.844 519.582C489.406 524.532 494.624 530.151 496.631 536.573C497.233 538.513 497.567 540.52 497.567 542.593Z" fill="#185ABC" stroke="#89C0F4" stroke-width="20.0682" stroke-linecap="round" stroke-linejoin="round"/>
<path d="M439.891 312.545V434.76L333.998 373.619L383.767 344.922L439.891 312.545Z" fill="#185ABC" stroke="#89C0F4" stroke-width="20.0682" stroke-linecap="round" stroke-linejoin="round"/>
<path d="M546.463 374.02L440.569 435.162L439.901 434.76V312.545L495.021 344.32L546.463 374.02Z" fill="#185ABC" stroke="#89C0F4" stroke-width="20.0682" stroke-linecap="round" stroke-linejoin="round"/>
<path d="M227.768 373.483L188.033 396.36C176.996 402.715 163.751 405.926 148.298 405.859C132.779 405.859 119.467 402.648 108.362 396.227C97.2581 389.805 91.7059 382.179 91.639 373.215C91.639 364.251 97.1243 356.625 108.162 350.27C119.132 343.849 132.444 340.705 147.897 340.705C163.416 340.771 176.728 343.982 187.766 350.404L227.768 373.483Z" fill="#185ABC" stroke="#89C0F4" stroke-width="20.0682" stroke-linecap="round" stroke-linejoin="round"/>
<path d="M281.02 404.187V537.975L241.351 560.919C215.731 575.703 184.826 583.061 148.503 582.994C112.246 582.927 81.2066 575.435 55.4527 560.585C29.6985 545.734 16.7881 527.807 16.6543 506.869V373.081C16.7881 394.019 29.6985 411.946 55.4527 426.797C64.7509 432.148 74.7186 436.563 85.4216 439.975C104.286 446.062 125.29 449.139 148.503 449.206C171.447 449.206 192.184 446.33 210.848 440.443C221.751 437.032 231.919 432.55 241.351 427.131L281.02 404.187Z" fill="#185ABC" stroke="#89C0F4" stroke-width="20.0682" stroke-linecap="round" stroke-linejoin="round"/>
<path d="M386.577 281.771L309.381 326.323L307.843 327.259V204.977C307.977 225.915 320.887 243.842 346.641 258.693L371.994 273.343L386.577 281.771Z" fill="#185ABC" stroke="#89C0F4" stroke-width="20.0682" stroke-linecap="round" stroke-linejoin="round"/>
<path d="M570.738 205.781V326.926L568.799 325.789L492.807 281.973L506.788 273.879L532.542 259.029C557.961 244.312 570.738 226.585 570.738 205.781Z" fill="#185ABC" stroke="#89C0F4" stroke-width="20.0682" stroke-linecap="round" stroke-linejoin="round"/>
<path d="M387.583 465.73L347.915 488.675C322.294 503.458 309.584 521.319 309.651 542.257V554.498L281.021 537.975V404.188L343.634 440.377L387.583 465.73Z" fill="#185ABC" stroke="#89C0F4" stroke-width="20.0682" stroke-linecap="round" stroke-linejoin="round"/>
<path d="M599.707 404.789V538.577L572.548 554.23V542.724C572.481 521.787 559.504 503.859 533.75 489.009L493.814 465.93L536.76 441.112L599.707 404.789Z" fill="#185ABC" stroke="#89C0F4" stroke-width="20.0682" stroke-linecap="round" stroke-linejoin="round"/>
</svg>
