<svg width="570" height="378" viewBox="0 0 570 378" fill="none" xmlns="http://www.w3.org/2000/svg">
<path d="M132.921 270.38V270.489C132.921 279.939 127.241 287.968 115.825 294.523C104.354 301.132 90.4254 304.464 74.0388 304.409C57.5976 304.409 43.669 301.023 32.0892 294.359C20.564 287.695 14.7741 279.666 14.7194 270.216C14.6648 260.712 20.4002 252.682 31.8708 246.073C43.3414 239.464 57.2699 236.132 73.6565 236.187C90.043 236.187 103.972 239.573 115.551 246.237C127.077 252.901 132.867 260.93 132.921 270.38Z" fill="#185ABC" stroke="#89C0F4" stroke-width="16.3866" stroke-linecap="round" stroke-linejoin="round"/>
<path d="M258.884 343.08V343.189C258.884 352.639 253.149 360.668 241.733 367.223C230.262 373.832 216.333 377.164 199.947 377.11C183.56 377.11 169.577 373.723 158.052 367.059C146.527 360.395 140.682 352.366 140.628 342.916C140.628 336.362 143.304 330.517 148.766 325.328C151.224 323.034 154.228 320.794 157.779 318.773C169.249 312.164 183.178 308.832 199.564 308.887C215.951 308.887 229.934 312.273 241.459 318.937C244.737 320.849 247.577 322.815 249.926 325C255.88 330.299 258.829 336.307 258.884 343.08Z" fill="#185ABC" stroke="#89C0F4" stroke-width="16.3866" stroke-linecap="round" stroke-linejoin="round"/>
<path d="M258.062 198.17V198.279C258.062 207.674 252.382 215.704 240.966 222.258C229.495 228.922 215.567 232.199 199.18 232.199C182.794 232.145 168.81 228.813 157.285 222.149C145.705 215.485 139.915 207.401 139.861 197.951C139.806 188.502 145.541 180.418 157.012 173.809C168.483 167.199 182.411 163.867 198.798 163.922C215.184 163.977 229.167 167.309 240.693 173.972C252.218 180.636 258.008 188.666 258.062 198.17Z" fill="#185ABC" stroke="#89C0F4" stroke-width="16.3866" stroke-linecap="round" stroke-linejoin="round"/>
<path d="M384.025 270.87V270.979C384.025 280.374 378.289 288.404 366.873 294.958C355.402 301.622 341.474 304.899 325.088 304.899C308.701 304.845 294.717 301.513 283.192 294.849C271.667 288.185 265.822 280.101 265.822 270.651C265.768 264.097 268.499 258.252 273.961 253.063C276.364 250.715 279.369 248.53 282.919 246.509C294.39 239.899 308.319 236.622 324.705 236.622C341.092 236.677 355.075 240.009 366.6 246.672C369.877 248.584 372.717 250.551 375.066 252.736C381.02 258.034 383.97 264.097 384.025 270.87Z" fill="#185ABC" stroke="#89C0F4" stroke-width="16.3866" stroke-linecap="round" stroke-linejoin="round"/>
<path d="M509.152 198.606V198.715C509.152 208.11 503.417 216.139 492.001 222.749C480.53 229.358 466.602 232.635 450.215 232.635C433.828 232.635 419.845 229.249 408.32 222.585C396.795 215.921 391.005 207.837 390.95 198.387C390.896 188.938 396.576 180.908 408.047 174.244C419.518 167.635 433.446 164.358 449.833 164.358C466.219 164.413 480.202 167.744 491.728 174.408C503.308 181.072 509.097 189.156 509.152 198.606Z" fill="#185ABC" stroke="#89C0F4" stroke-width="16.3866" stroke-linecap="round" stroke-linejoin="round"/>
<path d="M635.061 271.306V271.416C635.061 280.811 629.38 288.895 617.964 295.449C606.493 302.059 592.565 305.336 576.124 305.336C559.737 305.281 545.808 301.949 534.228 295.285C522.703 288.622 516.913 280.538 516.858 271.088C516.858 261.638 522.539 253.609 534.01 246.945C545.48 240.336 559.409 237.059 575.796 237.059C592.182 237.059 606.111 240.445 617.691 247.109C629.216 253.773 635.006 261.857 635.061 271.306Z" fill="#185ABC" stroke="#89C0F4" stroke-width="16.3866" stroke-linecap="round" stroke-linejoin="round"/>
<path d="M509.919 343.571V343.68C509.919 353.075 504.238 361.104 492.822 367.714C481.351 374.323 467.368 377.6 450.982 377.6C434.595 377.545 420.666 374.214 409.087 367.55C397.561 360.886 391.771 352.802 391.717 343.352C391.662 336.798 394.393 330.953 399.91 325.764C402.314 323.415 405.318 321.23 408.868 319.209C420.339 312.6 434.267 309.323 450.654 309.323C467.04 309.377 480.969 312.709 492.549 319.373C495.826 321.285 498.612 323.251 500.961 325.436C506.914 330.735 509.864 336.798 509.919 343.571Z" fill="#185ABC" stroke="#89C0F4" stroke-width="16.3866" stroke-linecap="round" stroke-linejoin="round"/>
<path d="M384.777 415.835V415.945C384.777 425.34 379.097 433.369 367.626 439.924C356.155 446.588 342.227 449.865 325.84 449.81C309.454 449.81 295.525 446.478 283.945 439.76C272.42 433.096 266.63 425.067 266.576 415.617C266.521 409.062 269.252 403.218 274.714 398.029C277.172 395.735 280.176 393.495 283.727 391.474C295.197 384.865 309.126 381.533 325.512 381.588C341.899 381.588 355.828 384.974 367.408 391.638C370.74 393.55 373.525 395.571 375.874 397.646C381.773 402.999 384.723 409.062 384.777 415.835Z" fill="#185ABC" stroke="#89C0F4" stroke-width="16.3866" stroke-linecap="round" stroke-linejoin="round"/>
<path d="M383.203 125.905V126.014C383.203 135.409 377.523 143.439 366.107 150.048C354.637 156.657 340.707 159.935 324.321 159.935C307.934 159.935 293.952 156.548 282.426 149.884C270.847 143.22 265.057 135.136 265.002 125.687C264.947 116.237 270.682 108.208 282.153 101.544C293.623 94.9345 307.552 91.6572 323.939 91.6572C340.325 91.7118 354.308 95.0438 365.833 101.708C377.359 108.372 383.149 116.456 383.203 125.905Z" fill="#185ABC" stroke="#89C0F4" stroke-width="16.3866" stroke-linecap="round" stroke-linejoin="round"/>
<path d="M635.061 271.419V380.553C635.115 390.003 629.435 398.087 617.964 404.696C606.493 411.306 592.565 414.583 576.124 414.583C559.737 414.528 545.808 411.196 534.228 404.532C522.703 397.869 516.913 389.785 516.858 380.335V271.091C516.913 280.541 522.703 288.625 534.228 295.289C545.808 301.953 559.737 305.285 576.124 305.339C592.565 305.339 606.493 302.062 617.964 295.453C629.38 288.898 635.061 280.814 635.061 271.419Z" fill="#185ABC" stroke="#89C0F4" stroke-width="16.3866" stroke-linecap="round" stroke-linejoin="round"/>
<path d="M509.918 343.683V452.818C509.973 462.267 504.292 470.297 492.822 476.96C481.351 483.57 467.368 486.847 450.981 486.847C434.595 486.792 420.666 483.46 409.086 476.797C397.561 470.133 391.771 462.049 391.716 452.599V343.355C391.771 352.805 397.561 360.889 409.086 367.553C420.666 374.217 434.595 377.549 450.981 377.603C467.368 377.603 481.351 374.326 492.822 367.717C504.238 361.108 509.918 353.078 509.918 343.683Z" fill="#185ABC" stroke="#89C0F4" stroke-width="16.3866" stroke-linecap="round" stroke-linejoin="round"/>
<path d="M509.151 198.718V307.853C509.206 314.407 506.475 320.252 500.958 325.441C498.609 323.256 495.823 321.29 492.546 319.378C480.966 312.714 467.038 309.382 450.651 309.328C434.265 309.328 420.336 312.605 408.865 319.214C405.315 321.235 402.311 323.42 399.907 325.769C393.954 320.47 391.005 314.407 390.95 307.634V198.391C391.005 207.84 396.794 215.924 408.319 222.588C419.844 229.252 433.828 232.584 450.214 232.639C466.601 232.639 480.53 229.361 492 222.752C503.416 216.143 509.151 208.113 509.151 198.718Z" fill="#185ABC" stroke="#89C0F4" stroke-width="16.3866" stroke-linecap="round" stroke-linejoin="round"/>
<path d="M383.203 126.011V235.146C383.257 241.701 380.527 247.545 375.065 252.734C372.716 250.549 369.876 248.583 366.598 246.671C355.073 240.007 341.09 236.675 324.703 236.621C308.317 236.621 294.388 239.898 282.918 246.507C279.367 248.528 276.363 250.713 273.959 253.062C268.005 247.764 265.056 241.701 265.002 234.928V125.684C265.056 135.133 270.846 143.217 282.426 149.881C293.951 156.545 307.934 159.877 324.321 159.932C340.708 159.932 354.636 156.654 366.107 150.045C377.523 143.436 383.203 135.407 383.203 126.011Z" fill="#185ABC" stroke="#89C0F4" stroke-width="16.3866" stroke-linecap="round" stroke-linejoin="round"/>
<path d="M384.023 270.983V380.117C384.023 386.617 381.347 392.461 375.885 397.651C373.536 395.575 370.75 393.554 367.418 391.642C355.838 384.978 341.91 381.592 325.523 381.592C309.137 381.537 295.208 384.869 283.738 391.478C280.187 393.499 277.183 395.739 274.725 398.033C268.826 392.68 265.822 386.672 265.822 379.898V270.655C265.822 280.104 271.666 288.188 283.191 294.852C294.716 301.516 308.7 304.848 325.086 304.903C341.473 304.903 355.401 301.625 366.872 294.962C378.288 288.407 384.023 280.377 384.023 270.983Z" fill="#185ABC" stroke="#89C0F4" stroke-width="16.3866" stroke-linecap="round" stroke-linejoin="round"/>
<path d="M258.884 343.192V452.327C258.938 461.831 253.203 469.86 241.733 476.469C230.262 483.079 216.333 486.411 199.947 486.356C183.56 486.356 169.577 482.969 158.052 476.306C146.527 469.642 140.682 461.612 140.628 452.163V342.919C140.628 352.369 146.527 360.398 158.052 367.062C169.577 373.726 183.56 377.112 199.947 377.112C216.333 377.167 230.262 373.835 241.733 367.226C253.149 360.671 258.884 352.642 258.884 343.192Z" fill="#185ABC" stroke="#89C0F4" stroke-width="16.3866" stroke-linecap="round" stroke-linejoin="round"/>
<path d="M132.921 270.491V379.626C132.975 389.13 127.295 397.159 115.824 403.769C104.353 410.378 90.4248 413.71 74.0383 413.655C57.5971 413.655 43.6686 410.269 32.0888 403.605C20.5636 396.941 14.7737 388.912 14.7191 379.462V270.218C14.7737 279.668 20.5636 287.697 32.0888 294.361C43.6686 301.025 57.5971 304.412 74.0383 304.412C90.4248 304.466 104.353 301.134 115.824 294.525C127.24 287.97 132.921 279.941 132.921 270.491Z" fill="#185ABC" stroke="#89C0F4" stroke-width="16.3866" stroke-linecap="round" stroke-linejoin="round"/>
<path d="M258.062 198.275V307.41C258.062 313.965 255.386 319.809 249.923 324.998C247.575 322.813 244.734 320.847 241.457 318.935C229.932 312.271 215.949 308.885 199.562 308.885C183.175 308.83 169.247 312.162 157.776 318.771C154.226 320.792 151.222 323.032 148.764 325.326C142.865 319.973 139.915 313.91 139.86 307.191V197.948C139.915 207.397 145.705 215.481 157.285 222.145C168.81 228.809 182.793 232.141 199.179 232.196C215.566 232.196 229.495 228.918 240.965 222.254C252.381 215.7 258.062 207.67 258.062 198.275Z" fill="#185ABC" stroke="#89C0F4" stroke-width="16.3866" stroke-linecap="round" stroke-linejoin="round"/>
</svg>
