<svg width="570" height="378" viewBox="0 0 570 378" fill="none" xmlns="http://www.w3.org/2000/svg">
<path d="M508.22 247.454V310.476L412.18 308.863V247.293C412.18 241.861 414.6 236.914 419.44 232.559C421.322 230.892 423.581 229.278 426.215 227.773C435.626 222.342 446.865 219.652 460.039 219.652C462.835 219.652 465.524 219.814 468.159 220.083C477.946 220.997 486.55 223.578 494.025 227.88C503.435 233.311 508.166 239.872 508.22 247.454Z" fill="#185ABC" stroke="#89C0F4" stroke-width="16.1321" stroke-linecap="round" stroke-linejoin="round"/>
<path d="M151.584 195.138V257.837C150.832 258.052 150.133 258.267 149.434 258.536C144.272 260.257 139.433 262.462 134.916 265.043L54.4167 311.557V379.85L32.2614 392.648V285.101L83.5077 255.525L121.203 233.747C130.99 228.101 138.68 221.594 144.272 214.227C145.24 212.937 146.154 211.592 146.907 210.248C149.811 205.408 151.369 200.354 151.584 195.138Z" fill="#185ABC" stroke="#89C0F4" stroke-width="16.1321" stroke-linecap="round" stroke-linejoin="round"/>
<path d="M554.402 329.195V436.634C554.456 441.42 551.283 445.668 544.884 449.325C538.485 453.035 531.172 454.864 522.891 454.864C505.576 454.81 486.809 454.595 466.697 454.273C446.532 453.896 431.959 454.165 422.925 454.972C410.127 456.262 398.459 458.736 387.92 462.446C377.38 466.103 367.27 470.781 357.483 476.374C343.986 484.225 328.016 489.817 309.572 493.259C291.127 496.7 272.682 497.453 254.238 495.463C244.075 494.334 233.588 492.882 222.834 490.999C212.133 489.117 201.432 486.859 190.893 484.225V376.677C201.432 379.312 212.133 381.57 222.834 383.452C230.201 384.743 237.407 385.819 244.505 386.733C245.15 386.841 245.742 386.894 246.334 386.948C248.969 387.325 251.603 387.647 254.238 387.916C272.682 389.906 291.127 389.153 309.572 385.711C328.016 382.27 343.986 376.677 357.483 368.826C367.27 363.234 377.38 358.556 387.92 354.899C395.448 352.264 403.513 350.221 412.171 348.823C412.601 348.769 412.978 348.715 413.355 348.661C416.473 348.177 419.645 347.747 422.925 347.425C431.959 346.618 446.532 346.349 466.697 346.725C480.571 346.941 493.799 347.101 506.328 347.209H508.211C513.212 347.209 518.105 347.317 522.891 347.317C531.172 347.317 538.485 345.488 544.884 341.778C551.23 338.175 554.402 333.927 554.402 329.195Z" fill="#185ABC" stroke="#89C0F4" stroke-width="16.1321" stroke-linecap="round" stroke-linejoin="round"/>
<path d="M453.95 133.24C444.486 127.755 433.195 125.066 420.02 125.013C406.846 125.013 395.553 127.701 386.143 133.133C376.786 138.51 372.107 145.016 372.161 152.652C372.161 160.234 376.894 166.795 386.358 172.226C395.822 177.711 407.113 180.453 420.288 180.453C433.462 180.507 444.755 177.764 454.166 172.387C463.469 167.009 468.147 160.503 468.147 152.921V152.814C468.147 145.232 463.361 138.671 453.95 133.24Z" fill="#185ABC" stroke="#89C0F4" stroke-width="16.1321" stroke-linecap="round" stroke-linejoin="round"/>
<path d="M304.248 129.695C304.248 137.331 299.623 143.838 290.212 149.269C280.802 154.646 269.563 157.335 256.389 157.335C243.214 157.335 231.869 154.592 222.405 149.108C212.994 143.676 208.262 137.116 208.208 129.534C208.154 121.898 212.833 115.391 222.189 110.014C231.6 104.583 242.893 101.894 256.067 101.894C269.242 101.894 280.533 104.637 289.997 110.122C299.462 115.553 304.194 122.113 304.248 129.695Z" fill="#185ABC" stroke="#89C0F4" stroke-width="16.1321" stroke-linecap="round" stroke-linejoin="round"/>
<path d="M151.589 195.137C151.374 200.353 149.815 205.408 146.912 210.248C146.159 211.592 145.245 212.936 144.277 214.227C138.684 221.594 130.995 228.101 121.208 233.747L83.512 255.525L32.2658 285.101C27.6951 279.024 23.8237 272.84 20.5435 266.656C17.3171 260.472 14.7364 254.181 12.8543 247.889C11.9401 244.77 11.4022 241.543 11.2946 238.371V235.682C11.5097 229.283 13.3383 222.885 16.8873 216.432C22.6949 205.892 32.3197 196.697 45.8707 188.9C55.6035 183.307 63.6695 177.446 70.0148 171.369C76.4139 165.293 80.7152 158.518 82.9199 151.151C84.0492 146.15 84.3729 137.76 83.8889 126.038C83.4587 114.315 83.2431 103.453 83.1893 93.4515C83.1356 88.6657 86.3082 84.4176 92.7073 80.7072C99.1063 77.0506 106.42 75.2222 114.701 75.2222C122.982 75.2222 130.348 77.1045 136.747 80.8148C143.2 84.5252 146.427 88.7733 146.427 93.5592L151.481 190.728C151.643 192.234 151.643 193.685 151.589 195.137Z" fill="#185ABC" stroke="#89C0F4" stroke-width="16.1321" stroke-linecap="round" stroke-linejoin="round"/>
<path d="M246.329 290.047C245.629 300.694 238.746 309.836 225.571 317.418L145.072 363.879C136.038 360.868 127.058 357.425 118.186 353.554C114.69 352.048 111.303 350.489 108.023 348.875C102.968 346.456 98.1274 343.928 93.5567 341.293C85.9746 336.938 78.877 332.206 72.2629 327.097C65.6487 321.935 59.7342 316.773 54.4106 311.557L134.91 265.043C139.427 262.462 144.266 260.257 149.429 258.536C150.128 258.267 150.826 258.052 151.525 257.837C160.774 254.879 171.044 253.32 182.337 253.105C200.781 252.675 216.215 256.062 228.691 263.268C241.166 270.474 247.028 279.4 246.329 290.047Z" fill="#185ABC" stroke="#89C0F4" stroke-width="16.1321" stroke-linecap="round" stroke-linejoin="round"/>
<path d="M554.402 329.086V329.193C554.402 333.925 551.229 338.173 544.884 341.776C538.485 345.486 531.172 347.315 522.891 347.315C518.105 347.315 513.212 347.261 508.211 347.207H506.328C493.799 347.1 480.571 346.938 466.697 346.723C446.532 346.347 431.959 346.616 422.925 347.422C419.645 347.745 416.473 348.175 413.355 348.659C412.978 348.713 412.601 348.767 412.17 348.82C403.513 350.219 395.448 352.262 387.92 354.897C377.38 358.553 367.27 363.232 357.483 368.824C343.986 376.675 328.016 382.268 309.572 385.709C291.127 389.151 272.682 389.903 254.238 387.914C251.603 387.645 248.969 387.322 246.334 386.946C245.742 386.892 245.15 386.839 244.505 386.731C237.407 385.817 230.201 384.741 222.834 383.45C212.133 381.568 201.432 379.311 190.893 376.676L212.617 364.146L246.334 344.68L251.442 341.723L279.888 325.321C289.621 319.675 301.074 315.266 314.249 312.039C317.852 311.179 321.455 310.426 325.112 309.835C331.457 308.759 337.856 308.114 344.309 307.899C347.643 307.737 350.976 307.737 354.364 307.845L412.17 308.867L508.211 310.48L522.676 310.749C531.333 311.018 538.808 312.9 545.046 316.503C551.283 320.105 554.402 324.3 554.402 329.086Z" fill="#185ABC" stroke="#89C0F4" stroke-width="16.1321" stroke-linecap="round" stroke-linejoin="round"/>
<path d="M145.085 363.879V471.426C136.051 468.415 127.071 464.973 118.198 461.102C109.325 457.284 101.097 453.197 93.5691 448.841C85.987 444.485 78.8889 439.753 72.2747 434.644C65.6606 429.482 59.7465 424.32 54.423 419.104V311.557C59.7465 316.773 65.6606 321.935 72.2747 327.097C78.8889 332.206 85.987 336.938 93.5691 341.294C98.1398 343.929 102.981 346.456 108.035 348.876C111.315 350.489 114.703 352.049 118.198 353.554C127.071 357.426 136.051 360.868 145.085 363.879Z" fill="#185ABC" stroke="#89C0F4" stroke-width="16.1321" stroke-linecap="round" stroke-linejoin="round"/>
<path d="M151.579 195.137V194.169V195.137Z" fill="#185ABC"/>
<path d="M151.579 195.137V194.169" stroke="#89C0F4" stroke-width="16.1321" stroke-linecap="round" stroke-linejoin="round"/>
<path d="M32.2598 285.099V392.647C27.6891 386.57 23.8177 380.386 20.5375 374.202C17.3111 368.018 14.7304 361.726 12.8483 355.435C11.6653 351.402 11.1273 347.315 11.2886 343.228V238.37C11.3962 241.542 11.9341 244.769 12.8483 247.888C14.7304 254.179 17.3111 260.471 20.5375 266.655C23.8177 272.839 27.6891 279.023 32.2598 285.099Z" fill="#185ABC" stroke="#89C0F4" stroke-width="16.1321" stroke-linecap="round" stroke-linejoin="round"/>
<path d="M11.2946 345.002V343.227V345.002Z" fill="#185ABC"/>
<path d="M11.2946 345.002V343.227" stroke="#89C0F4" stroke-width="16.1321" stroke-linecap="round" stroke-linejoin="round"/>
<path d="M11.2946 235.68V234.067V235.68Z" fill="#185ABC"/>
<path d="M11.2946 235.68V234.067" stroke="#89C0F4" stroke-width="16.1321" stroke-linecap="round" stroke-linejoin="round"/>
<path d="M246.331 290.044V344.679L212.615 364.145L190.89 376.674V444.967L145.075 471.423V363.876L225.574 317.416C238.749 309.834 245.632 300.692 246.331 290.044Z" fill="#185ABC" stroke="#89C0F4" stroke-width="16.1321" stroke-linecap="round" stroke-linejoin="round"/>
<path d="M344.313 224.331V307.895C337.86 308.111 331.461 308.756 325.116 309.831C321.459 310.423 317.856 311.176 314.253 312.036C301.079 315.262 289.625 319.672 279.892 325.318L251.446 341.719C249.295 338.654 248.273 335.319 248.273 331.717V224.169C248.273 231.805 253.06 238.312 262.47 243.743C271.935 249.228 283.227 251.971 296.402 251.971H296.992C309.952 251.917 321.029 249.175 330.278 243.905C339.634 238.474 344.313 231.967 344.313 224.331Z" fill="#185ABC" stroke="#89C0F4" stroke-width="16.1321" stroke-linecap="round" stroke-linejoin="round"/>
<path d="M304.247 129.69V196.961C301.613 196.692 298.924 196.531 296.128 196.531C282.953 196.531 271.661 199.219 262.25 204.65C259.615 206.156 257.357 207.769 255.475 209.436C250.635 213.792 248.215 218.739 248.269 224.17V264.446C238.482 263.586 229.879 260.951 222.405 256.65C212.994 251.218 208.261 244.658 208.207 237.076V129.529C208.261 137.111 212.994 143.671 222.405 149.102C231.869 154.587 243.16 157.33 256.388 157.33C269.617 157.33 280.802 154.641 290.212 149.264C299.622 143.833 304.247 137.326 304.247 129.69Z" fill="#185ABC" stroke="#89C0F4" stroke-width="16.1321" stroke-linecap="round" stroke-linejoin="round"/>
<path d="M344.314 224.335C344.314 231.971 339.635 238.478 330.279 243.909C321.03 249.179 309.952 251.921 296.993 251.975H296.402C283.228 251.975 271.935 249.232 262.471 243.747C253.06 238.316 248.274 231.809 248.274 224.173C248.22 218.742 250.641 213.795 255.48 209.439C257.362 207.772 259.621 206.159 262.256 204.653C271.666 199.222 282.958 196.534 296.133 196.534C298.929 196.534 301.618 196.696 304.253 196.964C313.986 197.879 322.59 200.459 330.065 204.761C339.529 210.192 344.26 216.753 344.314 224.335Z" fill="#185ABC" stroke="#89C0F4" stroke-width="16.1321" stroke-linecap="round" stroke-linejoin="round"/>
<path d="M468.159 152.921V220.084C465.524 219.815 462.835 219.654 460.039 219.654C446.865 219.654 435.626 222.343 426.215 227.774C423.581 229.28 421.322 230.893 419.44 232.56C414.6 236.916 412.18 241.863 412.18 247.294V287.57C402.447 286.709 393.844 284.075 386.37 279.773C376.906 274.342 372.173 267.782 372.173 260.2V152.652C372.173 160.234 376.906 166.795 386.37 172.226C395.834 177.711 407.125 180.453 420.3 180.453C433.474 180.507 444.767 177.764 454.178 172.387C463.481 167.009 468.159 160.503 468.159 152.921Z" fill="#185ABC" stroke="#89C0F4" stroke-width="16.1321" stroke-linecap="round" stroke-linejoin="round"/>
<path d="M468.146 152.922V152.815V152.922Z" fill="#185ABC"/>
<path d="M468.146 152.922V152.815" stroke="#89C0F4" stroke-width="16.1321" stroke-linecap="round" stroke-linejoin="round"/>
</svg>
