<svg width="570" height="509" viewBox="0 0 570 509" fill="none" xmlns="http://www.w3.org/2000/svg">
<path d="M463.475 136.582C485.308 123.998 511.642 117.748 542.642 117.665C573.558 117.582 599.894 123.831 621.56 136.331C643.227 148.831 654.059 164.082 653.976 181.916C653.809 199.832 642.893 214.999 621.06 227.582C599.31 240.249 572.893 246.498 541.893 246.581C510.977 246.665 484.643 240.415 462.977 227.915C441.393 215.498 430.642 200.249 430.642 182.498V182.332C430.726 164.415 441.642 149.248 463.475 136.582ZM516.477 196.998C523.727 201.165 532.31 203.248 542.143 203.248C551.977 203.248 560.642 201.081 567.892 196.915C575.142 192.748 578.809 187.748 578.809 182.081C578.892 176.331 575.309 171.415 568.059 167.249C560.809 163.082 552.311 160.999 542.394 160.999C532.477 160.999 523.893 163.166 516.643 167.332C509.393 171.499 505.726 176.498 505.726 182.165C505.642 187.915 509.31 192.831 516.477 196.998Z" fill="#185ABC" stroke="#89C0F4" stroke-width="25" stroke-linecap="round" stroke-linejoin="round"/>
<path d="M505.728 182.162C505.644 187.912 509.311 192.829 516.478 196.996C523.728 201.163 532.312 203.246 542.145 203.246C551.978 203.246 560.644 201.079 567.894 196.913C575.144 192.746 578.811 187.745 578.811 182.079C578.894 176.329 575.311 171.413 568.061 167.246C560.811 163.079 552.312 160.996 542.395 160.996C532.478 160.996 523.894 163.163 516.644 167.33C509.394 171.496 505.728 176.495 505.728 182.162Z" fill="#185ABC" stroke="#89C0F4" stroke-width="25" stroke-linecap="round" stroke-linejoin="round"/>
<path d="M251.29 259.076C273.124 246.493 299.54 240.161 330.457 240.161C361.457 240.161 387.79 246.327 409.457 258.827C418.374 263.994 425.457 269.577 430.624 275.577C438.124 284.244 441.874 293.827 441.791 304.411C441.708 314.744 438.04 324.244 430.624 332.827C425.374 338.994 418.041 344.827 408.958 350.077C387.124 362.661 360.708 368.994 329.791 369.077C298.791 369.077 272.542 362.911 250.792 350.411C229.209 337.911 218.457 322.743 218.457 304.993V304.827C218.54 286.911 229.54 271.66 251.29 259.076ZM304.374 319.493C311.624 323.66 320.123 325.744 330.039 325.661C339.873 325.661 348.457 323.577 355.707 319.411C363.04 315.161 366.624 310.244 366.708 304.494C366.708 298.827 363.124 293.911 355.874 289.744C348.707 285.577 340.124 283.494 330.207 283.494C320.29 283.494 311.791 285.577 304.541 289.827C297.291 293.994 293.624 298.911 293.54 304.661C293.54 310.327 297.124 315.326 304.374 319.493Z" fill="#185ABC" stroke="#89C0F4" stroke-width="25" stroke-linecap="round" stroke-linejoin="round"/>
<path d="M293.555 304.67C293.555 310.336 297.138 315.335 304.388 319.502C311.638 323.669 320.137 325.753 330.053 325.67C339.887 325.67 348.471 323.586 355.721 319.42C363.054 315.17 366.638 310.253 366.722 304.503C366.722 298.836 363.138 293.92 355.888 289.753C348.721 285.586 340.138 283.503 330.221 283.503C320.304 283.503 311.805 285.586 304.555 289.836C297.305 294.003 293.638 298.92 293.555 304.67Z" fill="#185ABC" stroke="#89C0F4" stroke-width="25" stroke-linecap="round" stroke-linejoin="round"/>
<path d="M41.2258 380.414C62.9758 367.831 89.3924 361.497 120.392 361.414C151.309 361.414 177.642 367.664 199.309 380.164C207.142 384.664 213.476 389.497 218.476 394.663C227.309 403.913 231.727 414.247 231.643 425.747C231.56 436.997 227.226 447.247 218.476 456.414C213.392 461.831 206.808 466.831 198.808 471.414C176.975 483.997 150.642 490.33 119.642 490.413C88.7249 490.413 62.3916 484.247 40.7249 471.663C19.1416 459.247 8.30907 444.081 8.30907 426.247V426.081C8.47574 408.247 19.3924 392.997 41.2258 380.414ZM94.2266 440.831C101.477 444.997 109.975 447.081 119.892 446.997C129.808 446.997 138.309 444.914 145.642 440.664C152.892 436.497 156.56 431.58 156.56 425.83C156.56 420.08 152.976 415.247 145.809 410.997C138.559 406.831 129.976 404.831 120.142 404.831C110.309 404.831 101.643 406.913 94.3932 411.163C87.1432 415.33 83.4766 420.247 83.4766 425.997C83.3933 431.664 86.9766 436.664 94.2266 440.831Z" fill="#185ABC" stroke="#89C0F4" stroke-width="25" stroke-linecap="round" stroke-linejoin="round"/>
<path d="M83.4696 425.995C83.3863 431.661 86.9696 436.661 94.2196 440.828C101.47 444.995 109.968 447.078 119.885 446.995C129.801 446.995 138.302 444.911 145.635 440.661C152.885 436.495 156.553 431.577 156.553 425.827C156.553 420.077 152.969 415.245 145.802 410.995C138.552 406.828 129.969 404.828 120.135 404.828C110.302 404.828 101.636 406.911 94.3862 411.161C87.1362 415.327 83.4696 420.245 83.4696 425.995Z" fill="#185ABC" stroke="#89C0F4" stroke-width="25" stroke-linecap="round" stroke-linejoin="round"/>
<path d="M8.31107 426.248V519.331C15.8111 527.998 19.6453 537.665 19.5619 548.165V621.664C24.8119 627.664 31.8936 633.247 40.7269 638.33C62.3936 650.914 88.7261 657.08 119.643 657.08C150.643 656.997 176.976 650.665 198.809 638.081C220.643 625.498 231.561 610.247 231.644 592.414V425.747C231.561 436.997 227.227 447.248 218.477 456.415C213.394 461.831 206.809 466.831 198.809 471.415C176.976 483.998 150.643 490.33 119.643 490.414C88.7261 490.414 62.3936 484.247 40.7269 471.664C19.1436 459.247 8.31107 444.081 8.31107 426.248Z" fill="#185ABC" stroke="#89C0F4" stroke-width="25" stroke-linecap="round" stroke-linejoin="round"/>
<path d="M-203.783 548.578V548.744C-203.783 566.577 -193.033 581.745 -171.449 594.161C-149.783 606.661 -123.449 612.911 -92.4493 612.828C-61.5327 612.828 -35.116 606.495 -13.2827 593.911C-4.19935 588.661 2.96817 582.995 8.30151 576.745C15.7182 568.161 19.469 558.578 19.5523 548.161C19.6357 537.661 15.8015 527.995 8.30151 519.328C3.05151 513.245 -4.03266 507.661 -12.866 502.578C-34.5327 490.078 -60.7818 483.828 -91.7818 483.911C-122.782 483.995 -149.115 490.327 -170.949 502.911C-192.699 515.494 -203.699 530.745 -203.783 548.578Z" fill="#185ABC" stroke="#89C0F4" stroke-width="25" stroke-linecap="round" stroke-linejoin="round"/>
<path d="M430.643 182.498V275.581C438.143 284.248 441.893 293.831 441.81 304.415V377.748C446.977 383.831 454.061 389.414 462.977 394.581C484.644 407.081 510.977 413.331 541.894 413.247C572.894 413.164 599.31 406.915 621.06 394.248C642.894 381.665 653.81 366.498 653.977 348.581V181.915C653.81 199.831 642.894 214.998 621.06 227.581C599.31 240.248 572.894 246.497 541.894 246.581C510.977 246.664 484.644 240.414 462.977 227.914C441.394 215.497 430.643 200.248 430.643 182.498Z" fill="#185ABC" stroke="#89C0F4" stroke-width="25" stroke-linecap="round" stroke-linejoin="round"/>
<path d="M218.459 304.996V394.662C227.292 403.912 231.71 414.246 231.627 425.746V502.496C236.627 507.663 242.96 512.58 250.793 517.08C272.543 529.58 298.793 535.746 329.793 535.746C360.71 535.663 387.127 529.33 408.96 516.746C430.71 504.163 441.71 488.913 441.792 471.08V304.413C441.71 314.746 438.042 324.246 430.626 332.83C425.376 338.996 418.043 344.83 408.96 350.08C387.127 362.663 360.71 368.996 329.793 369.08C298.793 369.08 272.543 362.913 250.793 350.413C229.21 337.913 218.459 322.746 218.459 304.996Z" fill="#185ABC" stroke="#89C0F4" stroke-width="25" stroke-linecap="round" stroke-linejoin="round"/>
</svg>
