<svg width="202" height="48" viewBox="0 0 202 48" fill="none" xmlns="http://www.w3.org/2000/svg">
<g clip-path="url(#clip0_20_30976)">
<path d="M21.6602 28.3421C21.738 28.4716 21.7648 28.6255 21.7354 28.7736C21.4608 30.0213 20.7927 31.1477 19.8296 31.9871C19.7768 32.027 19.7324 32.077 19.6988 32.1341C19.6868 32.1603 19.6806 32.1887 19.6806 32.2175C19.6806 32.2463 19.6868 32.2747 19.6988 32.3008C19.7181 32.3232 19.7423 32.3408 19.7695 32.3521C19.7968 32.3635 19.8263 32.3683 19.8558 32.3662C19.9952 32.3291 20.13 32.2764 20.2578 32.2093C20.8227 31.8885 21.3218 31.4637 21.7288 30.9573C21.974 30.6598 22.2159 30.3623 22.448 30.055C22.8851 29.4481 23.2085 28.767 23.4026 28.0447C23.5791 27.4596 23.7294 26.8678 23.9125 26.2827C23.9873 26.0681 24.078 25.8595 24.1839 25.6584C24.2264 25.5964 24.2758 25.5394 24.3309 25.4884H24.3767C24.4224 25.642 24.4781 25.7891 24.5107 25.946C24.5962 26.4395 24.6083 26.9429 24.5467 27.4399C24.4789 28.0868 24.3464 28.7252 24.1512 29.3457C24.0144 29.7271 23.8299 30.0895 23.602 30.4244C23.0292 31.3686 22.3526 32.2457 21.585 33.0396C21.0195 33.5857 20.4082 34.0822 19.7576 34.5238C19.7102 34.5481 19.6671 34.5801 19.6302 34.6186C19.5922 34.6644 19.5724 34.7225 19.5746 34.782C19.5883 34.8086 19.6082 34.8314 19.6327 34.8485C19.6572 34.8656 19.6855 34.8764 19.7152 34.8801C19.8519 34.8792 19.988 34.8617 20.1205 34.8277C20.7245 34.6537 21.2894 34.3651 21.7844 33.9778C23.169 32.9571 24.2934 31.6244 25.0664 30.0877C25.5591 29.0852 25.8785 28.0065 26.0112 26.8972C26.0907 26.197 26.0984 25.4905 26.0341 24.7888C25.978 24.4292 25.989 24.0623 26.0667 23.7068C26.0873 23.6253 26.1169 23.5463 26.155 23.4714C26.2433 23.3014 26.3708 23.2916 26.4557 23.4714C26.5451 23.6415 26.6111 23.823 26.6519 24.0108C26.8314 24.91 26.8875 25.8293 26.8186 26.7436C26.6917 28.229 26.3183 29.6829 25.7137 31.0456C25.1014 32.4486 24.182 33.6964 23.0233 34.697C22.6474 35.0239 22.2879 35.3508 21.8988 35.6581C21.4316 35.9978 20.9311 36.2892 20.4049 36.5276C19.244 37.1044 18.0084 37.517 16.7339 37.7534C15.9527 37.889 15.1594 37.9417 14.3671 37.9104C13.9782 37.9104 13.5858 37.8843 13.1969 37.8646C12.3174 37.8159 11.4497 37.6397 10.6209 37.3416C9.4207 36.924 8.26712 36.3827 7.17871 35.7268C5.90941 34.9485 4.82686 33.9005 4.00782 32.6571C3.60348 32.0724 3.25126 31.4533 2.95522 30.8069C2.94013 30.7686 2.91584 30.7345 2.88449 30.7077C2.85314 30.6809 2.81568 30.6622 2.77542 30.6533C2.56045 30.5998 2.36047 30.4982 2.19056 30.356C2.02067 30.2139 1.88531 30.0349 1.79473 29.8328C1.55234 29.2408 1.36415 28.6282 1.23248 28.0022C0.992906 26.9916 0.864651 25.958 0.850006 24.9196C0.859824 24.2621 0.919932 23.6064 1.0298 22.9581C1.15388 22.0774 1.3731 21.2126 1.68359 20.379C1.9582 19.6494 2.34415 18.9668 2.82772 18.3555C3.10886 18.0024 3.34096 17.6069 3.61554 17.2473C5.35828 14.944 7.85336 13.3246 10.6667 12.6707C11.2093 12.54 11.752 12.4027 12.3012 12.3014C12.7915 12.2098 13.2819 12.151 13.7852 12.1052C14.3671 12.0529 14.949 12.0071 15.5342 12.0006C17.8816 11.9679 20.1813 12.6659 22.1146 13.9979C22.3349 14.1312 22.5334 14.2977 22.703 14.4916C22.8282 14.6441 22.9116 14.8266 22.9449 15.0211C22.9578 15.0669 22.984 15.1078 23.0201 15.1388C23.481 15.5834 23.9714 16.0051 24.3963 16.4824C25.0717 17.2202 25.5604 18.1091 25.8216 19.0746C25.9413 19.4646 25.983 19.8744 25.9443 20.2804C25.9055 20.6865 25.7872 21.081 25.596 21.4414C25.2763 21.9796 24.8267 22.4292 24.2885 22.749C23.6896 23.1564 22.9713 23.351 22.2486 23.3014C21.573 23.2705 20.9318 22.9952 20.4442 22.5266C19.9318 21.9943 19.3859 21.4952 18.8097 21.0327C18.4305 20.7451 18.0382 20.4738 17.6427 20.2155C17.1645 19.9282 16.6348 19.7372 16.0834 19.6532C15.4561 19.5385 14.8173 19.5001 14.1808 19.5388C12.7894 19.5653 11.4431 20.0374 10.3398 20.8857C9.51293 21.5103 8.8324 22.308 8.34573 23.2229C8.07012 23.7781 7.89629 24.3782 7.8325 24.9948C7.77928 25.3751 7.74872 25.7582 7.74098 26.1421C7.77181 27.2366 8.05721 28.3088 8.57456 29.2738C8.95682 30.0223 9.46553 30.6991 10.0783 31.2744C10.6482 31.7865 11.2796 32.2258 11.958 32.5819C12.73 33.0005 13.5827 33.249 14.4587 33.311C15.6091 33.4311 16.771 33.2567 17.8355 32.8043C18.3457 32.5644 18.8155 32.2469 19.2281 31.8628C19.9407 31.2499 20.5385 30.5148 20.9933 29.6922C21.1633 29.3947 21.281 29.0678 21.4248 28.7541C21.4673 28.6593 21.5164 28.5644 21.5654 28.4729C21.5953 28.4285 21.6305 28.388 21.67 28.352" fill="black"/>
<path d="M192.859 23.3602C195.213 23.3602 196.781 25.1124 196.781 27.7014C196.781 30.2904 195.213 32.0165 192.859 32.0165C190.505 32.0165 188.91 30.2904 188.91 27.6753C188.91 25.0601 190.479 23.3602 192.859 23.3602ZM123.949 23.0987C125.78 23.0987 126.982 24.1186 127.271 25.74H120.654C120.942 24.1056 122.145 23.0987 123.949 23.0987ZM64.6372 29.4797C64.6372 31.0749 63.6958 32.0165 62.022 32.0165C60.3483 32.0165 59.3546 31.0749 59.3546 29.4797V20.5359C59.3546 20.4491 59.3202 20.366 59.2588 20.3047C59.1975 20.2434 59.1144 20.209 59.0277 20.209H55.628C55.5412 20.209 55.4581 20.2434 55.3968 20.3047C55.3355 20.366 55.3011 20.4491 55.3011 20.5359V29.6366C55.3011 33.6117 57.6286 35.5992 60.5575 35.5992C62.6497 35.5992 64.0619 34.3178 64.6634 32.3825V34.867C64.6681 34.9522 64.704 35.0326 64.7643 35.0929C64.8247 35.1532 64.9051 35.1891 64.9903 35.1939H68.4161C68.5028 35.1939 68.586 35.1594 68.6473 35.0981C68.7086 35.0368 68.7431 34.9536 68.7431 34.867V20.5359C68.7431 20.4491 68.7086 20.366 68.6473 20.3047C68.586 20.2434 68.5028 20.209 68.4161 20.209H64.9772C64.8905 20.209 64.8074 20.2434 64.7461 20.3047C64.6847 20.366 64.6503 20.4491 64.6503 20.5359L64.6372 29.4797ZM99.8373 29.4797C99.8373 31.0749 98.8956 32.0165 97.2223 32.0165C95.5481 32.0165 94.5547 31.0749 94.5547 29.4797V20.5359C94.5547 20.4491 94.52 20.366 94.4586 20.3047C94.3981 20.2434 94.3149 20.209 94.2277 20.209H90.8285C90.7412 20.209 90.658 20.2434 90.5967 20.3047C90.5353 20.366 90.5014 20.4491 90.5014 20.5359V29.6366C90.5014 33.6117 92.8289 35.5992 95.7581 35.5992C97.8498 35.5992 99.2623 34.3178 99.8631 32.3825V34.867C99.868 34.9522 99.9043 35.0326 99.9649 35.0929C100.025 35.1532 100.105 35.1891 100.19 35.1939H103.616C103.703 35.1939 103.786 35.1594 103.848 35.0981C103.908 35.0368 103.943 34.9536 103.943 34.867V20.5359C103.943 20.4491 103.908 20.366 103.848 20.3047C103.786 20.2434 103.703 20.209 103.616 20.209H100.177C100.091 20.209 100.008 20.2434 99.9463 20.3047C99.8849 20.366 99.8502 20.4491 99.8502 20.5359L99.8373 29.4797ZM107.291 34.867C107.291 34.9536 107.325 35.0368 107.386 35.0981C107.447 35.1594 107.531 35.1939 107.618 35.1939H110.991C111.078 35.1939 111.161 35.1594 111.222 35.0981C111.283 35.0368 111.318 34.9536 111.318 34.867V26.6553C111.318 24.5893 112.626 24.1971 114.457 24.1971H115.816C115.903 24.1971 115.986 24.1627 116.048 24.1014C116.109 24.0401 116.143 23.9569 116.143 23.8701V20.5359C116.143 20.4491 116.109 20.366 116.048 20.3047C115.986 20.2434 115.903 20.209 115.816 20.209H115.489C113.293 20.209 111.933 21.2289 111.305 23.7133V20.549C111.305 20.4622 111.271 20.379 111.209 20.3177C111.148 20.2564 111.065 20.222 110.978 20.222H107.605C107.518 20.222 107.434 20.2564 107.373 20.3177C107.312 20.379 107.278 20.4622 107.278 20.549L107.291 34.867ZM159.829 34.867C159.829 34.9536 159.864 35.0368 159.925 35.0981C159.986 35.1594 160.069 35.1939 160.156 35.1939H163.556C163.643 35.1939 163.726 35.1594 163.787 35.0981C163.848 35.0368 163.883 34.9536 163.883 34.867V25.74C163.883 24.2756 164.694 23.3602 166.236 23.3602C167.779 23.3602 168.643 24.2756 168.643 25.74V34.867C168.643 34.9536 168.677 35.0368 168.738 35.0981C168.799 35.1594 168.883 35.1939 168.969 35.1939H172.395C172.482 35.1939 172.565 35.1594 172.627 35.0981C172.688 35.0368 172.722 34.9536 172.722 34.867V25.74C172.722 24.2756 173.559 23.3602 175.076 23.3602C176.593 23.3602 177.482 24.2756 177.482 25.74V34.867C177.486 34.9522 177.522 35.0326 177.583 35.0929C177.643 35.1532 177.723 35.1891 177.808 35.1939H181.208C181.295 35.1939 181.378 35.1594 181.439 35.0981C181.501 35.0368 181.535 34.9536 181.535 34.867V25.6092C181.535 21.7388 179.247 19.7774 176.331 19.7774C173.873 19.7774 172.618 21.3727 171.964 23.3733C171.779 22.3754 171.255 21.4719 170.481 20.8164C169.706 20.161 168.728 19.7938 167.714 19.7774C165.57 19.7774 164.602 21.085 163.87 23.0202V20.5359C163.87 20.4491 163.835 20.366 163.774 20.3047C163.712 20.2434 163.63 20.209 163.543 20.209H160.143C160.056 20.209 159.973 20.2434 159.912 20.3047C159.85 20.366 159.816 20.4491 159.816 20.5359L159.829 34.867ZM201.123 27.7014C201.123 23.3079 198.534 19.7774 194.375 19.7774C191.656 19.7774 189.564 21.2158 188.91 23.2556V20.5359C188.91 20.4491 188.876 20.366 188.814 20.3047C188.753 20.2434 188.67 20.209 188.583 20.209H185.17C185.084 20.209 185.001 20.2434 184.939 20.3047C184.878 20.366 184.843 20.4491 184.843 20.5359V40.6727C184.843 40.7593 184.878 40.8425 184.939 40.9038C185.001 40.9651 185.084 40.9995 185.17 40.9995H188.596C188.683 40.9995 188.766 40.9651 188.827 40.9038C188.889 40.8425 188.923 40.7593 188.923 40.6727V32.1734C189.577 34.2132 191.669 35.6254 194.388 35.6254C198.547 35.6254 201.136 32.121 201.136 27.7014H201.123ZM144.478 26.8188L147.116 19.699L149.761 26.8188H144.478ZM131.402 27.708C131.402 23.236 128.735 19.6009 123.923 19.6009C119.399 19.6009 116.444 23.236 116.444 27.708C116.444 32.3368 119.739 35.7888 124.76 35.7888C127.48 35.7888 129.807 34.5858 130.906 32.9906C130.934 32.9533 130.955 32.9105 130.966 32.8649C130.978 32.8193 130.981 32.7718 130.973 32.7253C130.966 32.6788 130.949 32.6343 130.924 32.5945C130.899 32.5546 130.866 32.5203 130.827 32.4937L128.539 30.4539C128.507 30.426 128.47 30.405 128.43 30.3924C128.389 30.3798 128.346 30.3759 128.304 30.3808C128.263 30.3857 128.222 30.3995 128.187 30.4211C128.15 30.4427 128.119 30.4717 128.095 30.5062C127.704 31.07 127.179 31.5278 126.567 31.8382C125.955 32.1487 125.276 32.302 124.59 32.2845C122.655 32.2845 120.876 31.3692 120.615 28.8586H131.075C131.12 28.8627 131.163 28.8569 131.205 28.8419C131.247 28.8269 131.285 28.803 131.315 28.7718C131.347 28.7406 131.371 28.7029 131.386 28.6614C131.401 28.6199 131.407 28.5757 131.402 28.5317V27.708ZM78.1184 23.3929C78.1184 23.4796 78.1529 23.5628 78.2142 23.6241C78.2755 23.6854 78.3586 23.7198 78.4453 23.7198H80.6421V30.7416C80.6421 33.5659 82.0805 35.2135 85.088 35.2135H87.8864C87.9728 35.2135 88.0559 35.179 88.1173 35.1177C88.1787 35.0564 88.2126 34.9733 88.2126 34.8866V31.9445C88.2167 31.9006 88.211 31.8563 88.1965 31.8148C88.1811 31.7734 88.1577 31.7356 88.1262 31.7045C88.0947 31.6732 88.0576 31.6493 88.0156 31.6343C87.9744 31.6193 87.93 31.6136 87.8864 31.6177H85.9869C85.0452 31.6177 84.7318 31.2907 84.7318 30.4931V23.7263H87.8435C87.93 23.7263 88.0131 23.6919 88.0745 23.6306C88.1359 23.5693 88.1706 23.4861 88.1706 23.3995V20.549C88.1706 20.4622 88.1359 20.379 88.0745 20.3177C88.0131 20.2564 87.93 20.222 87.8435 20.222H84.7318V15.907C84.7318 15.8203 84.6971 15.7372 84.6357 15.6759C84.5744 15.6145 84.4912 15.5801 84.4048 15.5801H80.9297C80.8858 15.5761 80.8415 15.5818 80.8 15.5968C80.7585 15.6118 80.7208 15.6357 80.6896 15.6669C80.6585 15.6981 80.6345 15.7358 80.6195 15.7773C80.6045 15.8188 80.5988 15.8631 80.6028 15.907V20.1959H78.4061C78.3194 20.1959 78.2362 20.2303 78.1749 20.2917C78.1136 20.353 78.0792 20.4361 78.0792 20.5228L78.1184 23.3929ZM136.855 34.8997C136.841 34.9349 136.835 34.973 136.839 35.0107C136.842 35.0485 136.855 35.0849 136.876 35.1168C136.896 35.1488 136.924 35.1755 136.956 35.1945C136.989 35.2136 137.027 35.2246 137.065 35.2265H141.065C141.166 35.2295 141.263 35.199 141.344 35.1397C141.425 35.0805 141.483 34.9959 141.51 34.8997L143.105 30.5585H151.16L152.794 34.8997C152.822 34.9959 152.88 35.0805 152.961 35.1397C153.041 35.199 153.139 35.2295 153.239 35.2265H157.318C157.356 35.2246 157.394 35.2136 157.427 35.1945C157.459 35.1755 157.487 35.1488 157.507 35.1168C157.528 35.0849 157.541 35.0485 157.544 35.0107C157.548 34.973 157.542 34.9349 157.528 34.8997L150.205 15.8874C150.176 15.8008 150.119 15.726 150.044 15.6742C149.968 15.6224 149.879 15.5962 149.787 15.5997H144.583C144.487 15.5903 144.391 15.6136 144.31 15.6658C144.23 15.7181 144.169 15.7962 144.138 15.8874L136.855 34.8997ZM45.7165 31.5522C42.2383 31.5522 39.9108 28.9632 39.9108 25.3805C39.9108 21.7977 42.2383 19.2087 45.7165 19.2087C46.6725 19.2185 47.6131 19.4505 48.464 19.8862C49.315 20.3219 50.053 20.9494 50.6199 21.7192C50.644 21.7617 50.6779 21.7978 50.7188 21.8246C50.7597 21.8513 50.8063 21.8679 50.855 21.873C50.9035 21.8781 50.9526 21.8716 50.9981 21.854C51.0437 21.8363 51.0843 21.808 51.1168 21.7715L53.8889 19.3917C53.9532 19.3329 53.9939 19.2528 54.0035 19.1662C54.0131 19.0796 53.991 18.9925 53.9412 18.921C52.2413 16.4366 49.3646 15.1813 45.7296 15.1813C39.5185 15.1813 35.4258 19.8101 35.4258 25.3805C35.4258 31.0031 39.5316 35.6319 45.7296 35.6319C49.3646 35.6319 52.4244 34.0889 53.9412 31.8399C53.9917 31.7687 54.0142 31.6814 54.0045 31.5946C53.9949 31.5078 53.9537 31.4276 53.8889 31.3692L51.0906 29.0809C51.0606 29.045 51.022 29.0171 50.9785 28.9996C50.935 28.9822 50.8878 28.9757 50.8413 28.9809C50.7947 28.9861 50.7501 29.0027 50.7114 29.0293C50.6728 29.0559 50.6414 29.0916 50.6199 29.1332C50.043 29.8847 49.3004 30.4928 48.4498 30.9102C47.5993 31.3275 46.6639 31.5428 45.7165 31.5392V31.5522ZM75.8694 14.5406H72.4043C72.3603 14.5366 72.3161 14.5422 72.2746 14.5573C72.233 14.5723 72.1954 14.5962 72.1642 14.6274C72.133 14.6586 72.1091 14.6963 72.0941 14.7378C72.079 14.7793 72.0734 14.8235 72.0773 14.8675V34.8735C72.0773 34.9602 72.1118 35.0434 72.1731 35.1046C72.2344 35.1659 72.3176 35.2004 72.4043 35.2004H75.8531C75.9397 35.2004 76.0229 35.1659 76.0842 35.1046C76.1455 35.0434 76.1799 34.9602 76.1799 34.8735V14.8609C76.1839 14.817 76.1783 14.7727 76.1632 14.7312C76.1482 14.6897 76.1242 14.6521 76.0931 14.6209C76.0619 14.5897 76.0242 14.5657 75.9827 14.5507C75.9412 14.5357 75.897 14.53 75.8531 14.534" fill="black"/>
</g>
<defs>
<clipPath id="clip0_20_30976">
<rect width="201" height="48" fill="white" transform="translate(0.850006)"/>
</clipPath>
</defs>
</svg>
