<svg width="221" height="48" viewBox="0 0 221 48" fill="none" xmlns="http://www.w3.org/2000/svg">
<g clip-path="url(#clip0_20_30977)">
<path fill-rule="evenodd" clip-rule="evenodd" d="M9.0401 26.4336L21.3327 13.9905C22.1679 13.1451 23.2791 12.6802 24.4637 12.6802C25.6473 12.6802 26.7586 13.1446 27.5929 13.99L28.5506 14.9595L30.4665 13.0201L29.5088 12.0507C28.1633 10.6888 26.3717 9.93872 24.4628 9.93872C22.5547 9.93916 20.7627 10.6892 19.4173 12.0516L7.12463 24.4943L9.0401 26.4336Z" fill="black"/>
<path fill-rule="evenodd" clip-rule="evenodd" d="M25.4868 18.1236L23.5618 16.1871L11.2115 28.6118C9.47712 30.3566 6.65519 30.357 4.92128 28.6127C3.18693 26.868 3.18693 24.0287 4.92128 22.284L15.5785 11.5635L13.6535 9.62744L2.99676 20.348C0.201114 23.1603 0.201114 27.7368 2.99676 30.5488C4.34857 31.9087 6.14864 32.6581 8.06572 32.6581C9.98323 32.6581 11.7842 31.9082 13.136 30.5483L25.4868 18.1236Z" fill="black"/>
<path fill-rule="evenodd" clip-rule="evenodd" d="M37.7061 20.4506C36.3547 19.0907 34.5546 18.3417 32.6366 18.3417C30.7191 18.3422 28.9181 19.0911 27.5663 20.4515L15.2164 32.876L17.1405 34.8125L29.4913 22.3876C31.2261 20.6428 34.0476 20.6432 35.7815 22.3871C36.6202 23.2309 37.0821 24.3541 37.0821 25.5509C37.0821 26.7481 36.6202 27.8718 35.7815 28.7155L25.1247 39.4363L27.0497 41.3723L37.7061 30.652C40.5021 27.8396 40.5021 23.263 37.7061 20.4506Z" fill="black"/>
<path fill-rule="evenodd" clip-rule="evenodd" d="M31.6634 24.5662L19.371 37.0093C17.6444 38.7562 14.8362 38.7571 13.1105 37.0097L12.1528 36.0403L10.2369 37.9796L11.1947 38.9491C12.5401 40.311 14.3316 41.0611 16.241 41.0611C18.149 41.0606 19.9405 40.3106 21.2864 38.9482L33.5788 26.5055L31.6634 24.5662Z" fill="black"/>
<path fill-rule="evenodd" clip-rule="evenodd" d="M51.1549 28.7399C51.3134 29.5338 51.685 30.1554 52.2687 30.6033C52.852 31.052 53.6196 31.276 54.5714 31.276C55.508 31.276 56.232 31.0556 56.7438 30.6144C57.2557 30.1736 57.5114 29.5929 57.5114 28.8723C57.5114 28.5195 57.443 28.2218 57.3062 27.9792C57.169 27.7366 56.9782 27.5309 56.7334 27.3616C56.4877 27.1932 56.1853 27.0493 55.8251 26.932C55.4648 26.8142 55.061 26.6894 54.6141 26.557L53.4471 26.2264C52.7549 26.0354 52.135 25.8039 51.5874 25.5315C51.0394 25.2596 50.5711 24.9397 50.1821 24.5723C49.7931 24.2048 49.4973 23.7823 49.2957 23.3042C49.094 22.8266 48.9929 22.2712 48.9929 21.6394C48.9929 20.9778 49.1227 20.3678 49.3823 19.8089C49.6415 19.2508 50.0092 18.7723 50.4849 18.3755C50.9606 17.9788 51.5369 17.6664 52.2147 17.438C52.8917 17.211 53.6553 17.0968 54.5061 17.0968C56.1061 17.0968 57.3741 17.4825 58.3116 18.2542C59.2482 19.0264 59.7957 20.059 59.9547 21.3528L57.3602 21.5732C57.2012 20.9116 56.8845 20.3971 56.4088 20.0297C55.9331 19.6622 55.2701 19.4783 54.4198 19.4783C53.627 19.4783 53.0071 19.6658 52.5606 20.0408C52.1132 20.4158 51.8897 20.8974 51.8897 21.4852C51.8897 21.8233 51.9551 22.1059 52.0849 22.3338C52.2147 22.5622 52.4016 22.7604 52.6468 22.9292C52.8917 23.0985 53.1909 23.2491 53.5438 23.3811C53.8971 23.5135 54.297 23.6539 54.7439 23.8005L55.8469 24.1533C56.5382 24.3737 57.162 24.6051 57.7165 24.8477C58.2715 25.0903 58.7437 25.3809 59.1327 25.719C59.5222 26.0571 59.8214 26.4615 60.0301 26.932C60.2392 27.4025 60.3437 27.9832 60.3437 28.6741C60.3437 29.4094 60.1995 30.0821 59.9116 30.6917C59.6228 31.3022 59.2198 31.8202 58.7006 32.2463C58.1818 32.6729 57.5658 33.0039 56.8518 33.2385C56.1383 33.4735 55.3494 33.5917 54.4847 33.5917C52.8847 33.5917 51.5513 33.2096 50.4849 32.4449C49.4181 31.6803 48.7625 30.5264 48.5172 28.9825L51.1549 28.7399Z" fill="black"/>
<path fill-rule="evenodd" clip-rule="evenodd" d="M71.5045 19.7786C70.7268 19.7786 70.0313 19.925 69.4191 20.2169C68.8064 20.5092 68.2878 20.9143 67.8632 21.4326C67.4377 21.9514 67.1133 22.5653 66.8899 23.2729C66.667 23.9818 66.5555 24.7522 66.5555 25.5846C66.5555 26.4174 66.6704 27.1913 66.9012 27.9073C67.1312 28.6229 67.4595 29.2434 67.8845 29.7697C68.3091 30.2951 68.8282 30.7077 69.4408 31.0076C70.0527 31.3065 70.7481 31.456 71.5263 31.456C72.3045 31.456 72.9995 31.3141 73.6121 31.0292C74.224 30.7444 74.743 30.3464 75.1681 29.8347C75.5931 29.3239 75.921 28.7065 76.1513 27.9838C76.3817 27.2607 76.4971 26.4682 76.4971 25.6067C76.4971 24.7593 76.3817 23.9778 76.1513 23.2623C75.921 22.5471 75.5931 21.9333 75.1681 21.422C74.743 20.9112 74.2205 20.5092 73.6008 20.2169C72.9816 19.925 72.2827 19.7786 71.5045 19.7786ZM71.5263 17.4081C72.6933 17.4081 73.7598 17.6093 74.7252 18.0118C75.6902 18.4142 76.5115 18.9772 77.189 19.7016C77.8657 20.4265 78.3913 21.2933 78.7667 22.303C79.1412 23.3127 79.3285 24.4175 79.3285 25.6173C79.3285 26.8618 79.1303 27.9847 78.7345 28.9869C78.3373 29.9895 77.7726 30.8563 77.0375 31.5878L79.1125 34.0684V34.8367H76.4757L75.0274 33.0371C74.5231 33.2711 73.9823 33.4537 73.4066 33.5855C72.8301 33.7173 72.2104 33.7832 71.5481 33.7832C70.3518 33.7832 69.2749 33.5815 68.3169 33.1795C67.3585 32.777 66.5442 32.2136 65.8744 31.4892C65.2042 30.7648 64.6856 29.9019 64.3185 28.8989C63.951 27.8967 63.7672 26.803 63.7672 25.6173C63.7672 24.4175 63.951 23.3167 64.3185 22.3136C64.6856 21.3119 65.2077 20.4482 65.8853 19.7238C66.562 18.9993 67.3798 18.4324 68.3383 18.0224C69.2967 17.6133 70.3592 17.4081 71.5263 17.4081Z" fill="black"/>
<path fill-rule="evenodd" clip-rule="evenodd" d="M89.9102 31.3207C91.0159 31.3207 91.8772 30.972 92.4947 30.2736C93.1118 29.5753 93.4208 28.506 93.4208 27.0652V17.4081H96.1347V27.1314C96.1347 28.278 95.991 29.259 95.7038 30.0751C95.4161 30.8907 95.0073 31.5597 94.4761 32.0817C93.945 32.6037 93.2915 32.9858 92.5164 33.2284C91.741 33.4709 90.8722 33.5918 89.9102 33.5918C88.9334 33.5918 88.0611 33.4709 87.2935 33.2284C86.525 32.9858 85.8754 32.6037 85.3442 32.0817C84.8131 31.5597 84.4038 30.8907 84.1161 30.0751C83.8289 29.259 83.6857 28.278 83.6857 27.1314V17.4081H86.3996V27.0652C86.3996 28.506 86.7081 29.5753 87.3256 30.2736C87.9431 30.972 88.8045 31.3207 89.9102 31.3207Z" fill="black"/>
<path fill-rule="evenodd" clip-rule="evenodd" d="M103.91 26.4968H109.103L108.248 24.0261C107.912 23.0584 107.642 22.2707 107.437 21.6641C107.233 21.0572 107.05 20.5227 106.89 20.0602H106.211C106.123 20.3056 106.035 20.5515 105.947 20.7969C105.86 21.0427 105.761 21.3174 105.652 21.6205C105.542 21.9239 105.422 22.2707 105.29 22.661C105.159 23.0506 104.998 23.506 104.808 24.0261L103.91 26.4968ZM98.9357 32.522L104.523 17.7192H108.665L114.186 32.522V33.2805H111.469L109.892 28.8373H103.077L101.5 33.2805H98.9357V32.522Z" fill="black"/>
<path fill-rule="evenodd" clip-rule="evenodd" d="M120.3 24.828H122.666C123.707 24.828 124.528 24.6381 125.128 24.259C125.729 23.8795 126.03 23.2603 126.03 22.4005C126.03 21.5271 125.725 20.9188 125.118 20.5752C124.51 20.2319 123.693 20.0599 122.666 20.0599H120.3V24.828ZM129.436 33.2805H126.81L122.058 27.1686H120.3V33.2805H117.609V17.7192H122.666C123.461 17.7192 124.217 17.7734 124.933 17.8817C125.649 17.99 126.297 18.2393 126.876 18.6293C128.105 19.438 128.72 20.659 128.72 22.2909C128.72 22.9992 128.615 23.6167 128.405 24.1442C128.195 24.6712 127.917 25.1188 127.57 25.4874C127.222 25.856 126.821 26.1555 126.366 26.3861C125.91 26.6175 125.436 26.7909 124.944 26.9062L129.436 32.5215V33.2805Z" fill="black"/>
<path fill-rule="evenodd" clip-rule="evenodd" d="M132.859 17.7192H142.977V20.103H135.535V24.1776H142.455V26.5182H135.535V30.8962H143.129V33.2805H132.859V17.7192Z" fill="black"/>
<path fill-rule="evenodd" clip-rule="evenodd" d="M149.191 28.7399C149.349 29.5338 149.721 30.1554 150.305 30.6033C150.888 31.052 151.656 31.276 152.607 31.276C153.544 31.276 154.268 31.0556 154.78 30.6144C155.291 30.1736 155.548 29.5929 155.548 28.8723C155.548 28.5195 155.479 28.2218 155.342 27.9792C155.205 27.7366 155.014 27.5309 154.769 27.3616C154.524 27.1932 154.221 27.0493 153.861 26.932C153.501 26.8142 153.097 26.6894 152.65 26.557L151.483 26.2264C150.791 26.0354 150.171 25.8039 149.623 25.5315C149.075 25.2596 148.607 24.9397 148.219 24.5723C147.829 24.2048 147.533 23.7823 147.332 23.3042C147.13 22.8266 147.029 22.2712 147.029 21.6394C147.029 20.9778 147.159 20.3678 147.418 19.8089C147.678 19.2508 148.045 18.7723 148.521 18.3755C148.997 17.9788 149.573 17.6664 150.251 17.438C150.928 17.211 151.692 17.0968 152.542 17.0968C154.142 17.0968 155.41 17.4825 156.347 18.2542C157.284 19.0264 157.832 20.059 157.99 21.3528L155.396 21.5732C155.237 20.9116 154.92 20.3971 154.445 20.0297C153.969 19.6622 153.306 19.4783 152.456 19.4783C151.663 19.4783 151.043 19.6658 150.597 20.0408C150.15 20.4158 149.926 20.8974 149.926 21.4852C149.926 21.8233 149.991 22.1059 150.121 22.3338C150.251 22.5622 150.438 22.7604 150.683 22.9292C150.928 23.0985 151.227 23.2491 151.58 23.3811C151.933 23.5135 152.333 23.6539 152.78 23.8005L153.883 24.1533C154.574 24.3737 155.198 24.6051 155.753 24.8477C156.307 25.0903 156.78 25.3809 157.169 25.719C157.558 26.0571 157.857 26.4615 158.066 26.932C158.275 27.4025 158.38 27.9832 158.38 28.6741C158.38 29.4094 158.236 30.0821 157.947 30.6917C157.659 31.3022 157.256 31.8202 156.736 32.2463C156.218 32.6729 155.602 33.0039 154.888 33.2385C154.174 33.4735 153.385 33.5917 152.521 33.5917C150.921 33.5917 149.587 33.2096 148.521 32.4449C147.454 31.6803 146.799 30.5264 146.553 28.9825L149.191 28.7399Z" fill="black"/>
<path fill-rule="evenodd" clip-rule="evenodd" d="M165.183 24.9579H167.83C168.316 24.9579 168.76 24.9186 169.165 24.8396C169.569 24.761 169.922 24.6287 170.224 24.4422C170.525 24.2562 170.761 24.0056 170.93 23.6903C171.099 23.3754 171.183 22.9886 171.183 22.53C171.183 22.0576 171.099 21.6606 170.93 21.3384C170.761 21.0161 170.529 20.762 170.235 20.5755C169.941 20.389 169.591 20.2567 169.187 20.1781C168.782 20.0995 168.345 20.0598 167.875 20.0598H165.183V24.9579ZM162.425 17.7192H168.205C169.279 17.7192 170.18 17.8419 170.908 18.0878C171.636 18.3332 172.224 18.6725 172.673 19.1065C173.121 19.5397 173.445 20.0489 173.643 20.6345C173.841 21.2192 173.941 21.8515 173.941 22.5305C173.941 23.3401 173.805 24.044 173.533 24.6435C173.261 25.2431 172.867 25.7378 172.353 26.1282C171.838 26.5182 171.213 26.8107 170.477 27.0059C169.742 27.2011 168.911 27.2985 167.985 27.2985H165.183V33.2805H162.425V17.7192Z" fill="black"/>
<path fill-rule="evenodd" clip-rule="evenodd" d="M179.538 26.4968H184.731L183.876 24.0261C183.539 23.0584 183.269 22.2707 183.065 21.6641C182.861 21.0572 182.678 20.5227 182.517 20.0602H181.838C181.751 20.3056 181.663 20.5515 181.575 20.7969C181.488 21.0427 181.389 21.3174 181.279 21.6205C181.17 21.9239 181.05 22.2707 180.918 22.661C180.786 23.0506 180.626 23.506 180.436 24.0261L179.538 26.4968ZM174.564 32.522L180.151 17.7192H184.292L189.814 32.522V33.2805H187.097L185.519 28.8373H178.705L177.127 33.2805H174.564V32.522Z" fill="black"/>
<path fill-rule="evenodd" clip-rule="evenodd" d="M206.308 29.1662C206.061 29.7737 205.737 30.3455 205.337 30.8818C204.936 31.4181 204.452 31.8879 203.885 32.2892C203.318 32.6904 202.659 33.0078 201.909 33.2412C201.159 33.4746 200.326 33.5917 199.409 33.5917C198.245 33.5917 197.186 33.3889 196.233 32.9837C195.279 32.5794 194.466 32.0186 193.792 31.3031C193.118 30.5867 192.597 29.734 192.231 28.7431C191.864 27.7526 191.681 26.6787 191.681 25.5213C191.681 24.3648 191.864 23.2908 192.231 22.3C192.597 21.3095 193.121 20.4524 193.802 19.729C194.484 19.0065 195.301 18.4383 196.255 18.0265C197.208 17.6139 198.274 17.4081 199.453 17.4081C201.17 17.4081 202.608 17.8062 203.765 18.6013C204.922 19.3964 205.741 20.4524 206.221 21.7685L203.449 22.3104C203.07 21.5154 202.542 20.8895 201.865 20.434C201.188 19.9786 200.37 19.7508 199.409 19.7508C198.638 19.7508 197.95 19.8986 197.346 20.1941C196.742 20.4895 196.233 20.8965 195.818 21.4153C195.403 21.9337 195.086 22.546 194.868 23.2524C194.65 23.9583 194.541 24.7144 194.541 25.5213C194.541 26.3426 194.653 27.1027 194.879 27.8016C195.104 28.5009 195.432 29.1054 195.861 29.6173C196.291 30.1287 196.811 30.5282 197.423 30.8162C198.034 31.1047 198.733 31.2489 199.518 31.2489C200.537 31.2489 201.378 31.0028 202.04 30.5111C202.703 30.0194 203.215 29.4193 203.579 28.7103L206.308 29.1662Z" fill="black"/>
<path fill-rule="evenodd" clip-rule="evenodd" d="M209.869 17.5314H220.044V19.9383H212.56V24.0523H219.519V26.4155H212.56V30.836H220.198V33.2433H209.869V17.5314Z" fill="black"/>
</g>
<defs>
<clipPath id="clip0_20_30977">
<rect width="220" height="48" fill="white" transform="translate(0.900024)"/>
</clipPath>
</defs>
</svg>
