<svg width="166" height="48" viewBox="0 0 166 48" fill="none" xmlns="http://www.w3.org/2000/svg">
<g clip-path="url(#clip0_20_30978)">
<path d="M51.775 30.0563C51.3 30.175 50.7062 30.2938 50.1125 30.2938C48.925 30.2938 48.45 29.5813 48.45 28.3938V23.05H51.775C52.6062 23.05 53.4375 22.4563 53.4375 21.5063C53.4375 20.5563 52.725 19.9625 51.775 19.9625H48.45V18.1813C48.45 17.1125 47.6187 16.4 46.6687 16.4C45.7187 16.4 44.8875 17.2313 44.8875 18.1813V28.5125C44.8875 31.4813 46.3125 33.6188 49.6375 33.6188C50.5875 33.6188 51.8937 33.5 52.8437 33.025C53.675 32.6688 53.9124 32.075 53.9124 31.4813C53.9124 30.65 53.0812 29.8188 51.775 30.0563ZM63.65 19.4875C63.1749 19.3688 62.225 19.25 61.3937 19.25C58.425 19.25 56.7625 21.0313 56.7625 23.7625V31.8375C56.7625 32.7875 57.5937 33.6188 58.5437 33.6188C59.4937 33.6188 60.325 32.7875 60.325 31.8375V24.475C60.325 23.2875 60.7999 22.8125 61.6312 22.8125C62.4625 22.8125 62.9375 23.05 63.65 23.05C64.7187 23.05 65.3125 22.1 65.3125 21.3875C65.1937 20.4375 64.7187 19.8438 63.65 19.4875ZM73.5062 19.25C70.1812 19.25 67.8062 21.3875 67.45 24.8313C67.45 25.6625 67.3312 27.0875 67.45 28.1563C67.6875 31.4813 70.0625 33.7375 73.625 33.7375C75.2875 33.7375 76.8312 33.3813 77.7812 32.7875C78.4937 32.3125 78.6125 31.8375 78.6125 31.3626C78.6125 30.4125 77.7812 29.4625 76.3562 29.9375C75.525 30.2938 74.575 30.5313 73.625 30.5313C71.9625 30.5313 70.6562 29.7 70.6562 28.0375V27.6813H77.425C78.6125 27.6813 79.2062 26.9688 79.2062 25.9V25.3063C79.325 21.625 76.95 19.25 73.5062 19.25ZM75.7625 25.3063H70.775C70.775 23.525 71.6062 22.3375 73.5062 22.3375C75.1687 22.3375 76.1187 23.4063 76 24.95C76 25.1875 76 25.3063 75.7625 25.3063ZM87.7562 19.25C84.4312 19.25 82.0562 21.3875 81.7 24.8313C81.7 25.6625 81.5812 27.0875 81.7 28.1563C81.9375 31.4813 84.3124 33.7375 87.8749 33.7375C89.5374 33.7375 91.0812 33.3813 92.0312 32.7875C92.7437 32.3125 92.8625 31.8375 92.8625 31.3626C92.8625 30.4125 92.0312 29.4625 90.6062 29.9375C89.775 30.2938 88.8249 30.5313 87.8749 30.5313C86.2124 30.5313 84.9062 29.7 84.9062 28.0375V27.6813H91.675C92.8625 27.6813 93.4562 26.9688 93.4562 25.9V25.3063C93.575 21.625 91.2 19.25 87.7562 19.25ZM90.0125 25.3063H85.025C85.025 23.525 85.8562 22.3375 87.7562 22.3375C89.4187 22.3375 90.3687 23.4063 90.2499 24.95C90.2499 25.1875 90.25 25.3063 90.0125 25.3063ZM147.725 25.1875L145.825 24.7125C144.637 24.475 144.281 24.1188 144.281 23.525C144.281 22.9313 144.875 22.4563 146.181 22.4563C146.894 22.4563 147.725 22.6938 148.437 23.05C149.269 23.525 150.219 23.4063 150.694 22.8125C151.287 22.2188 151.287 21.15 150.575 20.4375C149.625 19.725 147.962 19.25 146.3 19.25C143.212 19.25 140.956 20.7938 140.956 23.6438C140.956 25.9 142.619 27.0875 144.756 27.6813C145.825 27.9188 145.706 27.9188 146.656 28.1563C147.725 28.3938 148.2 28.8688 148.2 29.3438C148.2 30.0563 147.606 30.5313 146.181 30.5313C144.994 30.5313 143.925 30.175 143.094 29.7C142.262 29.1063 141.312 29.3438 140.837 30.0563C140.362 30.7688 140.481 31.7188 141.194 32.1938C142.144 33.025 143.687 33.7375 146.181 33.7375C149.269 33.7375 151.644 32.075 151.644 29.225C151.644 27.0875 150.337 25.7813 147.725 25.1875ZM164.231 27.6813C165.419 27.6813 166.012 26.9688 166.012 25.9V25.3063C166.012 21.625 163.637 19.25 160.194 19.25C156.869 19.25 154.494 21.3875 154.137 24.8313C154.137 25.6625 154.019 27.0875 154.137 28.1563C154.375 31.4813 156.75 33.7375 160.312 33.7375C161.975 33.7375 163.519 33.3813 164.469 32.7875C165.181 32.3125 165.3 31.8375 165.3 31.3626C165.3 30.4125 164.469 29.4625 163.044 29.9375C162.212 30.2938 161.262 30.5313 160.312 30.5313C158.65 30.5313 157.344 29.7 157.344 28.0375V27.6813H164.231ZM160.194 22.3375C161.856 22.3375 162.806 23.4063 162.687 24.95C162.687 25.1875 162.569 25.3063 162.45 25.3063H157.462C157.462 23.525 158.412 22.3375 160.194 22.3375ZM116.731 19.25C113.169 19.25 110.556 21.5063 110.2 24.5938C110.081 25.6625 110.081 27.3251 110.2 28.3938C110.437 31.4813 113.169 33.7375 116.731 33.7375C120.294 33.7375 122.906 31.4813 123.144 28.3938C123.262 27.3251 123.262 25.7813 123.144 24.7125C122.906 21.5063 120.294 19.25 116.731 19.25ZM119.581 27.8C119.462 29.3438 118.394 30.2938 116.731 30.2938C115.069 30.2938 114 29.225 113.881 27.8C113.881 27.0876 113.881 25.9 113.881 25.1875C114 23.6438 115.069 22.6938 116.731 22.6938C118.394 22.6938 119.462 23.7625 119.581 25.1875C119.7 25.9 119.7 27.0876 119.581 27.8ZM102.6 19.25C101.294 19.25 99.8687 19.725 99.3937 20.3188V16.5188C99.3937 15.45 98.6812 14.7375 97.7312 14.7375C96.7812 14.7375 96.0687 15.5688 96.0687 16.5188V31.8375C96.0687 32.7875 96.8999 33.6188 97.8499 33.6188C98.7999 33.6188 99.5125 32.7875 99.5125 31.8375V23.8813C100.106 23.2875 101.056 22.8125 102.244 22.8125C103.669 22.8125 104.5 23.6438 104.5 25.3063V31.8375C104.5 32.9063 105.212 33.7375 106.162 33.7375C107.231 33.7375 107.944 32.9063 107.944 31.8375V25.0688C107.825 21.2688 105.925 19.25 102.6 19.25ZM135.85 19.3688C134.9 19.3688 134.069 20.2 134.069 21.15V29.5813C133.475 29.9375 132.644 30.2938 131.575 30.2938C130.15 30.2938 129.081 29.4626 129.081 27.8V21.15C129.081 20.0813 128.25 19.25 127.3 19.25C126.231 19.25 125.637 20.0813 125.637 21.15V27.9188C125.637 31.6 127.775 33.6188 131.456 33.6188C134.187 33.6188 136.087 32.6688 136.919 32.075C137.394 31.8375 137.512 31.4813 137.512 30.8875V21.15C137.512 20.2 136.8 19.3688 135.85 19.3688Z" fill="#3E474F"/>
<path d="M31.825 12.0063C30.5187 11.2938 28.5 12.4813 27.3125 14.6188L25.0562 18.4188C24.225 19.9626 24.3437 21.8626 25.4125 23.4063L25.5312 23.5251C26.6 24.9501 27.9062 26.3751 28.3812 26.8501C28.6187 27.0876 28.8562 27.4438 28.975 27.9188C29.3312 29.2251 28.6187 30.6501 27.1937 31.0063C25.8875 31.3626 24.4625 30.6501 24.1062 29.2251C23.9875 28.8689 23.9875 28.5126 23.9875 28.2751C24.1062 27.6814 23.8687 26.8501 23.0375 25.9001C22.2062 25.0689 20.6625 26.7314 20.0687 28.3939V28.5126C19.5937 30.1751 19.2375 31.7189 19.3562 31.8376C19.3562 31.9564 19.475 31.9564 19.475 32.0751C20.1875 33.5001 19.7125 35.1626 18.2875 35.8751C16.8625 36.5876 15.2 36.1126 14.4875 34.6876C13.775 33.2626 14.25 31.6001 15.675 30.8876C15.7937 30.8876 15.7937 30.7689 15.9125 30.7689C16.0312 30.7689 16.2687 30.0563 16.625 29.1063C16.8625 28.2751 16.9812 27.9188 17.1 27.5626C17.2187 27.0876 17.4562 25.9001 17.3375 25.4251C17.2187 24.8314 16.625 24.8314 16.0312 25.1876C15.675 25.4251 14.9625 26.0189 14.725 26.2563C14.1312 26.7313 13.6562 27.4438 13.4187 28.0376C13.3 28.2751 13.0625 28.6314 12.825 28.8689C11.7562 29.7001 10.2125 29.5814 9.26245 28.5126C8.4312 27.4438 8.54995 25.9001 9.6187 24.9501C9.97495 24.7126 10.3312 24.4751 10.6875 24.4751C11.2812 24.3563 13.4187 23.0501 14.725 22.1001C14.9625 21.9813 15.3187 21.6251 15.4375 21.5063C15.7937 21.0313 15.4375 20.6751 15.0812 20.6751C14.0125 20.7938 12.825 20.9126 12.5875 21.2689C12.4687 21.3876 12.35 21.6251 12.1125 21.7439C11.1625 22.4564 9.73745 22.2188 9.02495 21.2689C8.31245 20.3188 8.54995 18.8939 9.49995 18.1813C9.8562 17.8251 10.45 17.7063 10.8062 17.7063C11.6375 17.7063 13.775 18.1813 15.4375 17.8251L15.9125 17.7063C17.6937 17.3501 19.8312 15.8063 20.6625 14.2626C20.6625 14.2626 21.4937 12.8376 22.4437 11.0563C23.5125 9.2751 23.3937 7.25635 22.325 6.6626L20.3062 5.4751C19.2374 4.88135 17.6937 4.88135 16.625 5.4751L2.84995 13.3126C1.7812 13.9063 0.949951 15.3313 0.949951 16.5188V31.7189C0.949951 32.9064 1.7812 34.3314 2.84995 34.9251L16.625 42.7626C17.6937 43.3563 19.3562 43.3563 20.3062 42.7626L34.0812 34.9251C35.15 34.3314 35.9812 32.9064 35.9812 31.7189V16.5188C35.9812 15.3313 35.15 13.9063 34.0812 13.3126C34.0812 13.3126 33.1312 12.7188 31.825 12.0063Z" fill="#5FCF80"/>
</g>
<defs>
<clipPath id="clip0_20_30978">
<rect width="165" height="48" fill="white" transform="translate(0.949951)"/>
</clipPath>
</defs>
</svg>
